<mxfile host="app.diagrams.net" modified="2024-06-10T02:35:40.947Z" agent="Mozilla/5.0 (Windows NT 10.0; Win64; x64) AppleWebKit/537.36 (KHTML, like Gecko) Chrome/125.0.0.0 Safari/537.36" version="24.5.2" etag="l01MbuPxmVW95DsFFgF7" type="github">
  <diagram name="Page-1" id="aL-JDZuz1ci5aaFKHha2">
    <mxGraphModel>
      <root>
        <mxCell id="0" />
        <mxCell id="1" parent="0" />
      </root>
    </mxGraphModel>
  </diagram>
</mxfile>
